<mxfile host="app.diagrams.net" agent="Mozilla/5.0 (Windows NT 10.0; Win64; x64) AppleWebKit/537.36 (KHTML, like Gecko) Chrome/127.0.0.0 Safari/537.36" version="24.7.7">
  <diagram name="Page-1" id="j5G6HjzZW4iH1slakJQ7">
    <mxGraphModel dx="903" dy="757" grid="1" gridSize="10" guides="1" tooltips="1" connect="1" arrows="1" fold="1" page="1" pageScale="1" pageWidth="850" pageHeight="1100" math="0" shadow="0">
      <root>
        <mxCell id="0" />
        <mxCell id="1" parent="0" />
        <UserObject label="&lt;div style=&quot;font-size: 1px&quot;&gt;&lt;font style=&quot;font-size:11.29px;font-family:Arial;color:#000000;direction:ltr;letter-spacing:0px;line-height:120%;opacity:1&quot;&gt;abstract template_method class&lt;br&gt;templateMethod()&lt;br&gt;virtual primitiveOperation1() = 0&lt;br&gt;virtual primitiveOperation2() = 0&lt;br&gt;&lt;/font&gt;&lt;/div&gt;" tags="Background" id="lGNXqcB8HCj0HZX5Qaf9-1">
          <mxCell style="verticalAlign=top;align=center;overflow=width;vsdxID=50;fillColor=#e8eef7;gradientColor=none;shape=stencil(nZBLDoAgDERP0z3SIyjew0SURgSD+Lu9kMZoXLhwN9O+tukAlrNpJg1SzDH4QW/URgNYgZTkjA4UkwJUgGXng+6DX1zLfmoymdXo17xh5zmRJ6Q42BWCfc2oJfdAr+Yv+AP9Cb7OJ3H/2JG1HNGz/84klThPVCc=);strokeColor=#000000;points=[[0.5,1,0],[1,0.5,0],[0.5,0,0],[0,0.5,0],[0.5,0.5,0]];labelBackgroundColor=none;rounded=0;html=1;whiteSpace=wrap;" vertex="1" parent="1">
            <mxGeometry x="500" y="403" width="180" height="67" as="geometry" />
          </mxCell>
        </UserObject>
        <UserObject label="" tags="Flowchart" id="lGNXqcB8HCj0HZX5Qaf9-6">
          <mxCell style="vsdxID=15;rotation=270;fillColor=none;gradientColor=none;strokeColor=none;spacingTop=-1;spacingBottom=-1;spacingLeft=-1;spacingRight=-1;points=[];labelBackgroundColor=none;rounded=0;html=1;whiteSpace=wrap;" vertex="1" parent="1">
            <mxGeometry x="384" y="397" width="80" height="110" as="geometry" />
          </mxCell>
        </UserObject>
        <mxCell id="lGNXqcB8HCj0HZX5Qaf9-7" value="" style="vsdxID=16;edgeStyle=none;startArrow=none;endArrow=oval;startSize=5;endSize=5;strokeColor=#000000;spacingTop=-1;spacingBottom=-1;spacingLeft=-1;spacingRight=-1;verticalAlign=middle;html=1;labelBackgroundColor=none;rounded=0;startFill=0;endFill=1;" edge="1" parent="lGNXqcB8HCj0HZX5Qaf9-6">
          <mxGeometry x="-15" y="95" relative="1" as="geometry">
            <Array as="points" />
            <mxPoint x="95" y="55" as="sourcePoint" />
            <mxPoint x="145" y="31" as="targetPoint" />
          </mxGeometry>
        </mxCell>
        <mxCell id="lGNXqcB8HCj0HZX5Qaf9-8" value="&lt;div style=&quot;font-size: 1px&quot;&gt;&lt;p style=&quot;text-align:left;margin-left:0;margin-right:0;margin-top:0px;margin-bottom:0px;text-indent:0;vertical-align:middle;direction:ltr;&quot;&gt;&lt;font style=&quot;font-size:12.7px;font-family:Arial;color:#000000;direction:ltr;letter-spacing:0px;line-height:120%;opacity:1&quot;&gt;…&lt;br&gt;&lt;/font&gt;&lt;font style=&quot;font-size:11.29px;font-family:Arial;color:#000000;direction:ltr;letter-spacing:0px;line-height:120%;opacity:1&quot;&gt;primitiveOperation1&lt;br&gt;…&lt;br&gt;primitiveOperation2&lt;br&gt;&lt;/font&gt;&lt;font style=&quot;font-size:12.7px;font-family:Arial;color:#000000;direction:ltr;letter-spacing:0px;line-height:120%;opacity:1&quot;&gt;…&lt;br&gt;&lt;/font&gt;&lt;/p&gt;&lt;/div&gt;" style="verticalAlign=middle;align=left;overflow=width;vsdxID=17;fillColor=#e8eef7;gradientColor=none;shape=stencil(UzV2Ls5ILEhVNTIoLinKz04tz0wpyVA1dlE1MsrMy0gtyiwBslSNXVWNndPyi1LTi/JL81Ig/IJEkEoQKze/DGRCBUSfoZmemTlIl5FBJUTEAMxzgyjOycxDUmxAnkJDAzxKMR2AphzIQDge4m9kOXSPAoUggWTsCgA=);strokeColor=#000000;spacingTop=-1;spacingBottom=-1;spacingLeft=-1;spacingRight=-1;flipH=1;points=[];labelBackgroundColor=none;rounded=0;html=1;whiteSpace=wrap;" vertex="1" parent="lGNXqcB8HCj0HZX5Qaf9-6">
          <mxGeometry x="-16" y="15" width="110" height="80" as="geometry" />
        </mxCell>
        <UserObject label="&lt;div style=&quot;font-size: 1px&quot;&gt;&lt;font style=&quot;font-size:11.29px;font-family:Arial;color:#000000;direction:ltr;letter-spacing:0px;line-height:120%;opacity:1&quot;&gt;Concrerete_template_method class&lt;br&gt;primitiveOperation1&lt;br&gt;primitiveOperation2&lt;br&gt;&lt;/font&gt;&lt;/div&gt;" tags="Background" id="lGNXqcB8HCj0HZX5Qaf9-15">
          <mxCell style="verticalAlign=top;align=center;overflow=width;vsdxID=52;fillColor=#e8eef7;gradientColor=none;shape=stencil(nZBLDoAgDERP0z3SIyjew0SURgSD+Lu9kMZoXLhwN9O+tukAlrNpJg1SzDH4QW/URgNYgZTkjA4UkwJUgGXng+6DX1zLfmoymdXo17xh5zmRJ6Q42BWCfc2oJfdAr+Yv+AP9Cb7OJ3H/2JG1HNGz/84klThPVCc=);strokeColor=#000000;points=[[1,0.5,0],[0.5,0,0],[0.5,0.5,0],[0.5,0.5,0]];labelBackgroundColor=none;rounded=0;html=1;whiteSpace=wrap;" vertex="1" parent="1">
            <mxGeometry x="494" y="498" width="192" height="64" as="geometry" />
          </mxCell>
        </UserObject>
        <UserObject label="&lt;div style=&quot;font-size: 1px&quot;&gt;&lt;p style=&quot;text-align:left;margin-left:0;margin-right:0;margin-top:0px;margin-bottom:0px;text-indent:0;vertical-align:top;direction:ltr;&quot;&gt;&lt;font style=&quot;font-size:11.29px;font-family:Arial;color:#000000;direction:ltr;letter-spacing:0px;line-height:120%;opacity:1&quot;&gt;The common points of these three pattern is: &lt;/font&gt;&lt;font style=&quot;font-size:11.29px;font-family:Arial;color:#000000;direction:ltr;letter-spacing:0px;line-height:120%;opacity:1&quot;&gt;&lt;b&gt;put change down to child class.&lt;br/&gt;&lt;/b&gt;&lt;/font&gt;&lt;font style=&quot;font-size:11.29px;font-family:Arial;color:#000000;direction:ltr;letter-spacing:0px;line-height:120%;opacity:1&quot;&gt;1) Factory method produce different product.&lt;br/&gt;2) Strategy produce different algorithm.(whole part)&lt;br/&gt;3)Template method vary part of an algorithm.&lt;br/&gt;&lt;/font&gt;&lt;/p&gt;&lt;/div&gt;" tags="Background" id="lGNXqcB8HCj0HZX5Qaf9-20">
          <mxCell style="verticalAlign=top;align=left;overflow=width;vsdxID=54;fillColor=#e8eef7;gradientColor=none;shape=stencil(nZBLDoAgDERP0z3SIyjew0SURgSD+Lu9kMZoXLhwN9O+tukAlrNpJg1SzDH4QW/URgNYgZTkjA4UkwJUgGXng+6DX1zLfmoymdXo17xh5zmRJ6Q42BWCfc2oJfdAr+Yv+AP9Cb7OJ3H/2JG1HNGz/84klThPVCc=);strokeColor=#000000;points=[[1,0.5,0],[0.5,0,0],[0.5,0.5,0],[0.5,0.5,0]];labelBackgroundColor=none;rounded=0;html=1;whiteSpace=wrap;" vertex="1" parent="1">
            <mxGeometry x="66" y="408" width="288" height="90" as="geometry" />
          </mxCell>
        </UserObject>
        <UserObject label="" tags="Connector" id="lGNXqcB8HCj0HZX5Qaf9-24">
          <mxCell style="vsdxID=51;edgeStyle=none;startFill=0;startArrow=block;endArrow=none;startSize=5;endSize=5;strokeColor=#4677bf;spacingTop=0;spacingBottom=0;spacingLeft=0;spacingRight=0;verticalAlign=middle;html=1;labelBackgroundColor=#FFFFFF;rounded=0;exitX=0.5;exitY=1;exitDx=0;exitDy=0;exitPerimeter=0;entryX=0.5;entryY=0;entryDx=0;entryDy=0;entryPerimeter=0;" edge="1" parent="1" source="lGNXqcB8HCj0HZX5Qaf9-1" target="lGNXqcB8HCj0HZX5Qaf9-15">
            <mxGeometry relative="1" as="geometry">
              <mxPoint x="10" y="-1" as="offset" />
              <Array as="points" />
            </mxGeometry>
          </mxCell>
        </UserObject>
      </root>
    </mxGraphModel>
  </diagram>
</mxfile>
